
<svg width="100" height="100" viewBox="0 0 100 100" xmlns="http://www.w3.org/2000/svg">
  <g fill="none" fill-rule="evenodd">
    <g stroke="#4A8262" stroke-width="0.5" opacity="0.2">
      <!-- Islamic geometric star pattern -->
      <path d="M50,20 L55,35 L70,35 L60,45 L65,60 L50,50 L35,60 L40,45 L30,35 L45,35 L50,20 Z" />
      <path d="M50,80 L45,65 L30,65 L40,55 L35,40 L50,50 L65,40 L60,55 L70,65 L55,65 L50,80 Z" />
      <path d="M20,50 L35,45 L35,30 L45,40 L60,35 L50,50 L60,65 L45,60 L35,70 L35,55 L20,50 Z" />
      <path d="M80,50 L65,55 L65,70 L55,60 L40,65 L50,50 L40,35 L55,40 L65,30 L65,45 L80,50 Z" />
      
      <!-- Connecting lines -->
      <path d="M50,0 L50,100 M0,50 L100,50" />
      <path d="M0,0 L100,100 M0,100 L100,0" />
      
      <!-- Decorative circles -->
      <circle cx="50" cy="50" r="30" />
      <circle cx="50" cy="50" r="15" />
    </g>
  </g>
</svg>
